<?xml version="1.0" encoding="UTF-8"?>
<svg version="1.1" xmlns="http://www.w3.org/2000/svg" width="96" height="96">
<path d="M0 0 C31.68 0 63.36 0 96 0 C96 31.68 96 63.36 96 96 C64.32 96 32.64 96 0 96 C0 64.32 0 32.64 0 0 Z " fill="#9FFDB8" transform="translate(0,0)"/>
<path d="M0 0 C14.52 0 29.04 0 44 0 C44 31.68 44 63.36 44 96 C29.48 96 14.96 96 0 96 C0 95.34 0 94.68 0 94 C0.66 94 1.32 94 2 94 C2 93.34 2 92.68 2 92 C2.66 92 3.32 92 4 92 C4 92.66 4 93.32 4 94 C5.32 94 6.64 94 8 94 C7.01 91.03 7.01 91.03 6 88 C7.98 87.505 7.98 87.505 10 87 C9.34 86.34 8.68 85.68 8 85 C8.47050781 84.60167969 8.94101562 84.20335938 9.42578125 83.79296875 C11.31760553 81.6382607 11.66060789 80.10908118 12.1875 77.3125 C12.34605469 76.50425781 12.50460938 75.69601563 12.66796875 74.86328125 C12.77753906 74.24839844 12.88710937 73.63351563 13 73 C11.68 72.34 10.36 71.68 9 71 C9.33 67.37 9.66 63.74 10 60 C12.10375 59.4121875 12.10375 59.4121875 14.25 58.8125 C18.47398478 57.38673858 20.89341813 56.11741002 23 52 C23.0958418 48.82257395 23.0958418 48.82257395 22 46 C21.01 45.34 20.02 44.68 19 44 C18.84765625 42.1171875 18.84765625 42.1171875 19.0625 39.875 C19.25561716 34.66083671 17.58552266 31.40671198 15 27 C12.94117969 23.35691015 12.62600547 20.3396798 12.34375 16.21875 C11.97120598 13.81414771 11.18866568 12.10892298 10 10 C9.401875 10.165 8.80375 10.33 8.1875 10.5 C6 11 6 11 3 11 C2.34 10.34 1.68 9.68 1 9 C1 8.01 1 7.02 1 6 C0.01 5.67 -0.98 5.34 -2 5 C-1.34 3.35 -0.68 1.7 0 0 Z " fill="#A0FEB9" transform="translate(52,0)"/>
<path d="M0 0 C2.04296875 0.0703125 2.04296875 0.0703125 4 1 C5.82244981 3.67600226 6.17769027 5.81837196 6.25 9 C6.61195309 13.30085437 8.03275827 16.33171217 10.0625 20.125 C12.56563931 24.8198833 13.80201749 27.72959934 13 33 C12.505 33.99 12.505 33.99 12 35 C12.639375 35.20625 13.27875 35.4125 13.9375 35.625 C16 37 16 37 17.0625 39.75 C16.97500984 44.29948842 15.19183726 45.87909246 12 49 C8.92028678 51.11730284 6.66909108 51.06034689 3 51 C2.97312721 52.81242052 2.95366285 54.62495233 2.9375 56.4375 C2.92589844 57.44683594 2.91429687 58.45617187 2.90234375 59.49609375 C2.71387324 61.94021067 2.71387324 61.94021067 4 63 C4.69922879 69.99228792 4.69922879 69.99228792 1.875 74.0625 C-1 76 -1 76 -4.1875 75.9375 C-7 75 -7 75 -9 73 C-11.96555711 72.94125759 -11.96555711 72.94125759 -15.3125 73.3125 C-16.44300781 73.41175781 -17.57351562 73.51101562 -18.73828125 73.61328125 C-21.53988656 73.94544763 -24.24635577 74.39554151 -27 75 C-30 71.25 -30 71.25 -30 69 C-31.11375 68.4225 -32.2275 67.845 -33.375 67.25 C-35.48674863 66.02134625 -36.87913752 65.14713693 -38.4375 63.25 C-39.30023473 59.7990611 -39.11838386 56.55151574 -39 53 C-38.67 53 -38.34 53 -38 53 C-37.67 54.98 -37.34 56.96 -37 59 C-36.731875 58.071875 -36.46375 57.14375 -36.1875 56.1875 C-35.07632183 53.20486385 -34.47545451 51.88134543 -32 50 C-30.515 49.505 -30.515 49.505 -29 49 C-30.98 49 -32.96 49 -35 49 C-34.67 48.34 -34.34 47.68 -34 47 C-27.375 46.75 -27.375 46.75 -24 49 C-24 48.34 -24 47.68 -24 47 C-22 45.375 -22 45.375 -20 44 C-20.72316406 43.52820312 -20.72316406 43.52820312 -21.4609375 43.046875 C-22.09257813 42.61890625 -22.72421875 42.1909375 -23.375 41.75 C-24.00148438 41.33234375 -24.62796875 40.9146875 -25.2734375 40.484375 C-28.24238962 37.93188223 -28.93403221 35.86540797 -29.23046875 31.9765625 C-29.21628906 30.87054688 -29.20210937 29.76453125 -29.1875 28.625 C-29.17783203 26.97371094 -29.17783203 26.97371094 -29.16796875 25.2890625 C-29 22 -29 22 -28.484375 18.9453125 C-27.84416054 15.05239555 -28.0259255 11.32090134 -28.16015625 7.390625 C-28 5 -28 5 -26 3 C-19.75342466 3.34703196 -19.75342466 3.34703196 -17.125 5.625 C-14.07694771 7.59726913 -11.76757553 7.22197278 -8.24609375 6.73046875 C-5.64981129 5.88611254 -4.51787584 4.87304386 -2.6875 2.875 C-1.800625 1.92625 -0.91375 0.9775 0 0 Z " fill="#9E7946" transform="translate(59,9)"/>
<path d="M0 0 C2.04296875 0.0703125 2.04296875 0.0703125 4 1 C5.82244981 3.67600226 6.17769027 5.81837196 6.25 9 C6.61195309 13.30085437 8.03275827 16.33171217 10.0625 20.125 C12.56563931 24.8198833 13.80201749 27.72959934 13 33 C12.505 33.99 12.505 33.99 12 35 C12.639375 35.20625 13.27875 35.4125 13.9375 35.625 C16 37 16 37 17.0625 39.75 C16.97500984 44.29948842 15.19183726 45.87909246 12 49 C8.92028678 51.11730284 6.66909108 51.06034689 3 51 C2.97312721 52.81242052 2.95366285 54.62495233 2.9375 56.4375 C2.92589844 57.44683594 2.91429688 58.45617187 2.90234375 59.49609375 C2.71387324 61.94021067 2.71387324 61.94021067 4 63 C4.70415648 70.04156479 4.70415648 70.04156479 1.75 74.0625 C-1 76 -1 76 -3.3125 75.8125 C-3.869375 75.544375 -4.42625 75.27625 -5 75 C-4.01 74.505 -4.01 74.505 -3 74 C-2.27840576 72.35636866 -1.60648579 70.68949614 -1 69 C0.485 69.495 0.485 69.495 2 70 C2.23428313 65.2102679 2.23428313 65.2102679 0 61 C-0.13918347 57.49866588 0.0049127 54.04426413 0.125 50.54296875 C-0.001147 46.96748964 -0.70097176 44.31353687 -2 41 C-0.96939453 40.52820312 -0.96939453 40.52820312 0.08203125 40.046875 C0.98308594 39.61890625 1.88414063 39.1909375 2.8125 38.75 C4.15248047 38.12351562 4.15248047 38.12351562 5.51953125 37.484375 C8.10928331 35.93460211 9.38180834 34.51599234 11 32 C10.21625 31.896875 9.4325 31.79375 8.625 31.6875 C6 31 6 31 4 28 C0.93443402 27.26656572 0.93443402 27.26656572 -2 27 C-2.33 28.32 -2.66 29.64 -3 31 C-2.01 30.67 -1.02 30.34 0 30 C-0.33 30.99 -0.66 31.98 -1 33 C-1.66 33 -2.32 33 -3 33 C-3 33.99 -3 34.98 -3 36 C-5.97 36.495 -5.97 36.495 -9 37 C-9.33 35.68 -9.66 34.36 -10 33 C-7.525 32.505 -7.525 32.505 -5 32 C-5 31.01 -5 30.02 -5 29 C-6.32 29 -7.64 29 -9 29 C-9.66 29.66 -10.32 30.32 -11 31 C-11.99 31 -12.98 31 -14 31 C-14 32.32 -14 33.64 -14 35 C-16.75924185 36.80411967 -17.88972103 37.0127245 -21.25 36.625 C-22.1575 36.41875 -23.065 36.2125 -24 36 C-23.67 34.35 -23.34 32.7 -23 31 C-24.32 31 -25.64 31 -27 31 C-27 32.98 -27 34.96 -27 37 C-29 35 -29 35 -29.23046875 32.171875 C-29.21628906 31.04265625 -29.20210937 29.9134375 -29.1875 28.75 C-29.18105469 27.63109375 -29.17460937 26.5121875 -29.16796875 25.359375 C-29 22 -29 22 -28.484375 18.9375 C-27.84295188 15.04757916 -28.02602082 11.31811041 -28.16015625 7.390625 C-28 5 -28 5 -26 3 C-19.75342466 3.34703196 -19.75342466 3.34703196 -17.125 5.625 C-14.07694771 7.59726913 -11.76757553 7.22197278 -8.24609375 6.73046875 C-5.64981129 5.88611254 -4.51787584 4.87304386 -2.6875 2.875 C-1.800625 1.92625 -0.91375 0.9775 0 0 Z " fill="#E1AA95" transform="translate(59,9)"/>
<path d="M0 0 C0.33 0.66 0.66 1.32 1 2 C1.66 2 2.32 2 3 2 C3 2.99 3 3.98 3 5 C1.68 5.33 0.36 5.66 -1 6 C-1 6.99 -1 7.98 -1 9 C0.98 9 2.96 9 5 9 C5 8.01 5 7.02 5 6 C5.66 5.34 6.32 4.68 7 4 C6.34 4 5.68 4 5 4 C5.33 2.68 5.66 1.36 6 0 C8.31 0 10.62 0 13 0 C13.2475 0.639375 13.495 1.27875 13.75 1.9375 C14.81562433 4.18741541 14.81562433 4.18741541 17.125 4.75 C17.74375 4.8325 18.3625 4.915 19 5 C16.66275967 10.6483308 12.32933032 12.45645599 7 15 C7.33 15.66644531 7.66 16.33289063 8 17.01953125 C9.43029306 21.28247501 9.09170549 25.28252359 8.921875 29.73632812 C8.87998245 31.49057853 8.93359551 33.24650637 9 35 C9.66 35.66 10.32 36.32 11 37 C11.125 40.125 11.125 40.125 11 43 C10.01 43.495 10.01 43.495 9 44 C9 43.34 9 42.68 9 42 C7.43750191 43.31201173 7.43750191 43.31201173 6 45 C6 45.99 6 46.98 6 48 C5.01 48 4.02 48 3 48 C3.11509661 46.58249437 3.24253658 45.16598831 3.375 43.75 C3.44460937 42.96109375 3.51421875 42.1721875 3.5859375 41.359375 C4.01507113 38.914123 4.78600638 37.15163097 6 35 C3.93973281 32.35418376 3.93973281 32.35418376 1 30 C-2.71000718 29.58168596 -2.71000718 29.58168596 -6 30 C-5.67257813 29.44828125 -5.34515625 28.8965625 -5.0078125 28.328125 C-3.83212285 25.61219077 -3.79751362 23.69448241 -3.875 20.75 C-3.90207031 19.41195312 -3.90207031 19.41195312 -3.9296875 18.046875 C-3.95289063 17.37140625 -3.97609375 16.6959375 -4 16 C-5.19625 15.9175 -6.3925 15.835 -7.625 15.75 C-12.25111048 15.19125131 -15.67260699 13.32739301 -19 10 C-19.04080783 8.00041636 -19.04254356 5.99954746 -19 4 C-17.02 3.67 -15.04 3.34 -13 3 C-13.66 3.66 -14.32 4.32 -15 5 C-15.6425235 7.06874034 -15.6425235 7.06874034 -16 9 C-12.4780279 9.08004482 -9.38018531 9.04005702 -6 8 C-6 6.68 -6 5.36 -6 4 C-3.5625 2.3125 -3.5625 2.3125 -1 1 C-0.67 0.67 -0.34 0.34 0 0 Z " fill="#F4F1F2" transform="translate(51,36)"/>
<path d="M0 0 C2.04296875 0.0703125 2.04296875 0.0703125 4 1 C5.82244981 3.67600226 6.17769027 5.81837196 6.25 9 C6.61195309 13.30085437 8.03275827 16.33171217 10.0625 20.125 C12.56563931 24.8198833 13.80201749 27.72959934 13 33 C12.505 33.99 12.505 33.99 12 35 C12.639375 35.20625 13.27875 35.4125 13.9375 35.625 C16 37 16 37 17.0625 39.75 C16.97500984 44.29948842 15.19183726 45.87909246 12 49 C8.92028678 51.11730284 6.66909108 51.06034689 3 51 C2.97312721 52.81242052 2.95366285 54.62495233 2.9375 56.4375 C2.92589844 57.44683594 2.91429688 58.45617187 2.90234375 59.49609375 C2.71387324 61.94021067 2.71387324 61.94021067 4 63 C4.70415648 70.04156479 4.70415648 70.04156479 1.75 74.0625 C-1 76 -1 76 -3.3125 75.8125 C-3.869375 75.544375 -4.42625 75.27625 -5 75 C-4.01 74.505 -4.01 74.505 -3 74 C-2.27840576 72.35636866 -1.60648579 70.68949614 -1 69 C0.485 69.495 0.485 69.495 2 70 C2.23428313 65.2102679 2.23428313 65.2102679 0 61 C-0.13918347 57.49866588 0.0049127 54.04426413 0.125 50.54296875 C-0.001147 46.96748964 -0.70097176 44.31353687 -2 41 C-1.30132812 40.66226563 -0.60265625 40.32453125 0.1171875 39.9765625 C1.02726562 39.53054687 1.93734375 39.08453125 2.875 38.625 C3.77992187 38.18414062 4.68484375 37.74328125 5.6171875 37.2890625 C8.09534472 36.09497301 8.09534472 36.09497301 10 34 C11.27166468 25.38093942 7.80942352 19.05773126 3 12 C0.42237703 9.25699857 -0.70858133 9.01837485 -4.53125 8.77734375 C-5.8409375 8.83019531 -7.150625 8.88304687 -8.5 8.9375 C-16.57212735 9.24735528 -16.57212735 9.24735528 -20 7 C-19.67 7.66 -19.34 8.32 -19 9 C-19.66 9 -20.32 9 -21 9 C-20.67 10.32 -20.34 11.64 -20 13 C-20.78375 13.350625 -21.5675 13.70125 -22.375 14.0625 C-25.11712935 16.08645261 -25.96734252 17.32219389 -26.73046875 20.6171875 C-27.34528849 26.05255039 -27.13629513 31.54062299 -27 37 C-29 35 -29 35 -29.23046875 32.171875 C-29.21628906 31.04265625 -29.20210937 29.9134375 -29.1875 28.75 C-29.18105469 27.63109375 -29.17460937 26.5121875 -29.16796875 25.359375 C-29 22 -29 22 -28.484375 18.9375 C-27.84295188 15.04757916 -28.02602082 11.31811041 -28.16015625 7.390625 C-28 5 -28 5 -26 3 C-19.75342466 3.34703196 -19.75342466 3.34703196 -17.125 5.625 C-14.07694771 7.59726913 -11.76757553 7.22197278 -8.24609375 6.73046875 C-5.64981129 5.88611254 -4.51787584 4.87304386 -2.6875 2.875 C-1.800625 1.92625 -0.91375 0.9775 0 0 Z " fill="#5B6261" transform="translate(59,9)"/>
<path d="M0 0 C4.5437453 4.45465225 8.1811421 11.31716639 9.1875 17.5859375 C9.1875 19.5 9.1875 19.5 8.8125 22.25 C7.1625 21.92 5.5125 21.59 3.8125 21.25 C1.8125 14.5 1.8125 14.5 1.8125 12.25 C0.94625 12.58 0.08 12.91 -0.8125 13.25 C-4.14468275 14.23731341 -6.73909538 14.41420974 -10.1875 14.25 C-10.1875 12.27 -10.1875 10.29 -10.1875 8.25 C-12.4975 7.59 -14.8075 6.93 -17.1875 6.25 C-17.1875 5.26 -17.1875 4.27 -17.1875 3.25 C-17.8475 2.92 -18.5075 2.59 -19.1875 2.25 C-18.1875 0.25 -18.1875 0.25 -15.6875 -0.875 C-9.91746073 -2.31750982 -5.33696632 -2.93009915 0 0 Z " fill="#FBA327" transform="translate(61.1875,18.75)"/>
<path d="M0 0 C3.20034869 0.28073234 5.00126455 0.44082794 7.5625 2.3125 C8.5625 5.3125 8.5625 5.3125 7.1875 8.125 C6.65125 9.176875 6.115 10.22875 5.5625 11.3125 C4.85491674 14.5491963 4.85491674 14.5491963 4.5625 17.3125 C4.03527344 16.97605469 3.50804688 16.63960937 2.96484375 16.29296875 C-0.1957355 15.00304128 -2.49040546 15.30023544 -5.875 15.625 C-6.98746094 15.72425781 -8.09992187 15.82351562 -9.24609375 15.92578125 C-12.39511836 16.25944021 -12.39511836 16.25944021 -15.28515625 16.91796875 C-15.99542969 17.04816406 -16.70570312 17.17835937 -17.4375 17.3125 C-18.4375 16.3125 -18.4375 16.3125 -18.5 13.25 C-18.479375 12.280625 -18.45875 11.31125 -18.4375 10.3125 C-16.4575 9.6525 -14.4775 8.9925 -12.4375 8.3125 C-12.4375 6.9925 -12.4375 5.6725 -12.4375 4.3125 C-11.0453125 4.1578125 -11.0453125 4.1578125 -9.625 4 C-6.45955183 3.63784677 -6.45955183 3.63784677 -5 1.75 C-3.4375 0.3125 -3.4375 0.3125 0 0 Z " fill="#F59C26" transform="translate(49.4375,66.6875)"/>
<path d="M0 0 C-0.33 1.65 -0.66 3.3 -1 5 C-1.99 4.67 -2.98 4.34 -4 4 C-1.93949285 6.11036711 -1.93949285 6.11036711 0.6875 8.3125 C3 11 3 11 2.8125 13.8125 C2.544375 14.534375 2.27625 15.25625 2 16 C0.58344207 16.0272415 -0.83327045 16.04650467 -2.25 16.0625 C-3.43335938 16.07990234 -3.43335938 16.07990234 -4.640625 16.09765625 C-6.93181105 16.00282239 -8.827207 15.72426433 -11 15 C-13.8208331 11.47395862 -13.14278164 7.28344933 -13 3 C-12.67 3 -12.34 3 -12 3 C-11.67 4.98 -11.34 6.96 -11 9 C-10.731875 8.071875 -10.46375 7.14375 -10.1875 6.1875 C-8.0099613 0.34252771 -6.19672687 -0.41311512 0 0 Z " fill="#968B76" transform="translate(33,59)"/>
<path d="M0 0 C0.66 0.33 1.32 0.66 2 1 C1.67 2.98 1.34 4.96 1 7 C5.02992782 6.44687265 9.02022924 5.8441938 13 5 C13.33 6.65 13.66 8.3 14 10 C9.25 11.125 9.25 11.125 7 10 C6.67 11.32 6.34 12.64 6 14 C6.99 13.67 7.98 13.34 9 13 C8.67 13.99 8.34 14.98 8 16 C7.34 16 6.68 16 6 16 C6 16.99 6 17.98 6 19 C4.02 19.33 2.04 19.66 0 20 C-0.33 18.68 -0.66 17.36 -1 16 C0.65 15.67 2.3 15.34 4 15 C4 14.01 4 13.02 4 12 C2.68 12 1.36 12 0 12 C-0.66 12.66 -1.32 13.32 -2 14 C-4.125 13.625 -4.125 13.625 -6 13 C-6 12.01 -6 11.02 -6 10 C-5.34 10.33 -4.68 10.66 -4 11 C-4 10.01 -4 9.02 -4 8 C-4.66 8 -5.32 8 -6 8 C-6 7.01 -6 6.02 -6 5 C-5.38125 4.9175 -4.7625 4.835 -4.125 4.75 C-1.81562433 4.18741541 -1.81562433 4.18741541 -0.75 1.9375 C-0.5025 1.298125 -0.255 0.65875 0 0 Z " fill="#ECA23B" transform="translate(50,26)"/>
<path d="M0 0 C0.33 0.66 0.66 1.32 1 2 C1.66 2 2.32 2 3 2 C3 2.99 3 3.98 3 5 C1.68 5.33 0.36 5.66 -1 6 C-1 6.99 -1 7.98 -1 9 C0.98 9 2.96 9 5 9 C5 10.32 5 11.64 5 13 C-0.65819338 15.82909669 -9.92837189 14.19264124 -16 13 C-18 11.8125 -18 11.8125 -19 10 C-19.1875 6.8125 -19.1875 6.8125 -19 4 C-17.02 3.67 -15.04 3.34 -13 3 C-13.66 3.66 -14.32 4.32 -15 5 C-15.6425235 7.06874034 -15.6425235 7.06874034 -16 9 C-12.4780279 9.08004482 -9.38018531 9.04005702 -6 8 C-6 6.68 -6 5.36 -6 4 C-3.5625 2.3125 -3.5625 2.3125 -1 1 C-0.67 0.67 -0.34 0.34 0 0 Z " fill="#FCF6F9" transform="translate(51,36)"/>
<path d="M0 0 C0.66 0 1.32 0 2 0 C1.93912884 1.39699314 1.85011115 2.7927696 1.75 4.1875 C1.70359375 4.96480469 1.6571875 5.74210937 1.609375 6.54296875 C0.77602609 9.90307429 -0.55837661 11.55083686 -3 14 C-6.03686523 14.58349609 -6.03686523 14.58349609 -9.55859375 14.5234375 C-11.46801758 14.50603516 -11.46801758 14.50603516 -13.41601562 14.48828125 C-14.75651456 14.45066813 -16.09700933 14.41290632 -17.4375 14.375 C-18.77406321 14.35848123 -20.11065516 14.34413615 -21.44726562 14.33203125 C-31.94440122 14.17274239 -31.94440122 14.17274239 -37 13 C-37.33 11.68 -37.66 10.36 -38 9 C-37.34 8.67 -36.68 8.34 -36 8 C-36.33 6.68 -36.66 5.36 -37 4 C-35.125 4.1875 -35.125 4.1875 -33 5 C-31.75 7.5625 -31.75 7.5625 -31 10 C-30.071875 9.855625 -29.14375 9.71125 -28.1875 9.5625 C-26.79211361 9.37170227 -25.3962038 9.18472112 -24 9 C-23.08476563 8.86980469 -22.16953125 8.73960938 -21.2265625 8.60546875 C-20.26492187 8.48816406 -19.30328125 8.37085937 -18.3125 8.25 C-16.94544922 8.07210937 -16.94544922 8.07210937 -15.55078125 7.890625 C-12.42063645 8.02484254 -11.38566527 9.06946165 -9 11 C-5.87319901 11.00674926 -5.87319901 11.00674926 -3 10 C-0.70366176 6.55549263 -0.45983515 4.06187717 0 0 Z " fill="#AAF2C8" transform="translate(63,73)"/>
<path d="M0 0 C6.24657534 0.34703196 6.24657534 0.34703196 8.875 2.625 C11.94592638 4.61207001 14.34849167 3.96604237 17.87890625 3.51953125 C20.28083439 3.05892971 20.28083439 3.05892971 23 1 C23 1.66 23 2.32 23 3 C23.66 3.66 24.32 4.32 25 5 C22.58388467 5.22237877 20.1682283 5.42832339 17.75 5.625 C16.72712891 5.72167969 16.72712891 5.72167969 15.68359375 5.8203125 C11.8772951 6.11594735 9.22190154 6.17561392 6 4 C6.33 4.66 6.66 5.32 7 6 C6.34 6 5.68 6 5 6 C5.33 7.32 5.66 8.64 6 10 C5.21625 10.350625 4.4325 10.70125 3.625 11.0625 C0.88287065 13.08645261 0.03265748 14.32219389 -0.73046875 17.6171875 C-1.34528849 23.05255039 -1.13629513 28.54062299 -1 34 C-3 32 -3 32 -3.23046875 29.171875 C-3.21628906 28.04265625 -3.20210937 26.9134375 -3.1875 25.75 C-3.18105469 24.63109375 -3.17460937 23.5121875 -3.16796875 22.359375 C-3 19 -3 19 -2.484375 15.9375 C-1.84295188 12.04757916 -2.02602082 8.31811041 -2.16015625 4.390625 C-2 2 -2 2 0 0 Z " fill="#5B5243" transform="translate(33,12)"/>
<path d="M0 0 C2.25621524 -0.00218203 4.51193799 -0.02032894 6.76806641 -0.03930664 C8.20426265 -0.04224158 9.64046122 -0.0442257 11.07666016 -0.04516602 C12.3836084 -0.0492749 13.69055664 -0.05338379 15.03710938 -0.05761719 C18.13542091 0.1663924 19.81786794 0.53733728 22.39697266 2.18530273 C19.75697266 2.18530273 17.11697266 2.18530273 14.39697266 2.18530273 C15.38697266 3.67030273 15.38697266 3.67030273 16.39697266 5.18530273 C16.39697266 6.17530273 16.39697266 7.16530273 16.39697266 8.18530273 C15.07697266 8.18530273 13.75697266 8.18530273 12.39697266 8.18530273 C12.39697266 7.52530273 12.39697266 6.86530273 12.39697266 6.18530273 C11.73697266 6.18530273 11.07697266 6.18530273 10.39697266 6.18530273 C10.39697266 6.84530273 10.39697266 7.50530273 10.39697266 8.18530273 C9.73697266 8.18530273 9.07697266 8.18530273 8.39697266 8.18530273 C8.39697266 8.84530273 8.39697266 9.50530273 8.39697266 10.18530273 C7.73697266 10.18530273 7.07697266 10.18530273 6.39697266 10.18530273 C6.39697266 7.87530273 6.39697266 5.56530273 6.39697266 3.18530273 C5.14400391 3.20850586 3.89103516 3.23170898 2.60009766 3.25561523 C0.94906196 3.274377 -0.7019802 3.29257677 -2.35302734 3.31030273 C-3.17802734 3.32706055 -4.00302734 3.34381836 -4.85302734 3.36108398 C-5.65224609 3.3675293 -6.45146484 3.37397461 -7.27490234 3.38061523 C-8.00805664 3.39108887 -8.74121094 3.4015625 -9.49658203 3.41235352 C-11.90198811 3.15307817 -13.51554229 2.37756199 -15.60302734 1.18530273 C-11.12421724 -1.05410232 -4.98443291 -0.00054143 0 0 Z " fill="#8DE7AD" transform="translate(43.60302734375,85.814697265625)"/>
<path d="M0 0 C0.66 0 1.32 0 2 0 C2.33 1.2375 2.66 2.475 3 3.75 C4.33652354 7.42706965 5.67853123 8.78588428 9.1875 10.5 C10.44750055 11.02670293 11.71549949 11.53623735 13 12 C11.71034824 13.37562854 10.37310707 14.70766393 9 16 C8.34 16 7.68 16 7 16 C7 16.66 7 17.32 7 18 C6.01 17.67 5.02 17.34 4 17 C-0.17023918 16.8455467 -3.94146318 17.01611229 -8 18 C-8 17.34 -8 16.68 -8 16 C-6.68 16 -5.36 16 -4 16 C-3.67 14.68 -3.34 13.36 -3 12 C-1.68 12 -0.36 12 1 12 C1 11.34 1 10.68 1 10 C0.01 9.67 -0.98 9.34 -2 9 C-0.68 8.67 0.64 8.34 2 8 C1.67 6.68 1.34 5.36 1 4 C0.34 4 -0.32 4 -1 4 C-0.67 2.68 -0.34 1.36 0 0 Z " fill="#A5F2C3" transform="translate(28,40)"/>
<path d="M0 0 C-0.66 3.96 -1.32 7.92 -2 12 C-4.97 12 -7.94 12 -11 12 C-11.02698189 10.37509046 -11.04638757 8.75005367 -11.0625 7.125 C-11.07410156 6.22007813 -11.08570313 5.31515625 -11.09765625 4.3828125 C-11 2 -11 2 -10 0 C-6.2141315 -1.54239087 -4.42958485 -0.73826414 0 0 Z " fill="#F7A32C" transform="translate(44,26)"/>
<path d="M0 0 C4.7522246 3.87218301 8.4414314 10.10381162 9.31640625 16.20703125 C9.3125 18.125 9.3125 18.125 9 21 C7.35 20.67 5.7 20.34 4 20 C2 13.25 2 13.25 2 11 C0.35 11.33 -1.3 11.66 -3 12 C-3.33 10.02 -3.66 8.04 -4 6 C-2.02 5.67 -0.04 5.34 2 5 C1.34 3.35 0.68 1.7 0 0 Z " fill="#EAB575" transform="translate(61,20)"/>
<path d="M0 0 C-0.33 1.32 -0.66 2.64 -1 4 C-3.475 3.01 -3.475 3.01 -6 2 C-6.77802187 4.3015411 -6.77802187 4.3015411 -7 7 C-6.01971384 8.34789347 -5.02028865 9.68212715 -4 11 C-4.3125 13.25 -4.3125 13.25 -5 15 C-7.875 14.6875 -7.875 14.6875 -11 14 C-13.35661998 10.46507003 -13.74846247 9.15812485 -13 5 C-9.29385484 0.8986751 -5.54698349 -0.6764614 0 0 Z " fill="#F6A428" transform="translate(47,55)"/>
<path d="M0 0 C0.33 0 0.66 0 1 0 C1.33 5.28 1.66 10.56 2 16 C0.68 16.33 -0.64 16.66 -2 17 C-2 17.66 -2 18.32 -2 19 C-3.98 19.99 -5.96 20.98 -8 22 C-8 21.01 -8 20.02 -8 19 C-8.99 18.67 -9.98 18.34 -11 18 C-7.535 17.505 -7.535 17.505 -4 17 C-4 14.03 -4 11.06 -4 8 C-5.32 7.34 -6.64 6.68 -8 6 C-4.86650268 4.95550089 -4.01031744 5.06576355 -1 6 C-0.67 4.02 -0.34 2.04 0 0 Z " fill="#A6F3CA" transform="translate(30,13)"/>
<path d="M0 0 C0.99 0.99 1.98 1.98 3 3 C2.525625 4.03125 2.05125 5.0625 1.5625 6.125 C0.15477612 9.38534162 -0.56835498 12.46051083 -1 16 C-1.52722656 15.66355469 -2.05445312 15.32710937 -2.59765625 14.98046875 C-5.7582355 13.69054128 -8.05290546 13.98773544 -11.4375 14.3125 C-12.54996094 14.41175781 -13.66242187 14.51101562 -14.80859375 14.61328125 C-17.58367052 14.94955126 -20.2708387 15.40315538 -23 16 C-23.33 15.34 -23.66 14.68 -24 14 C-22.35 14 -20.7 14 -19 14 C-18.67 13.34 -18.34 12.68 -18 12 C-15.20657842 11.07909179 -12.35192564 10.72019424 -9.4375 10.375 C-8.29087891 10.23191406 -8.29087891 10.23191406 -7.12109375 10.0859375 C-5 10 -5 10 -2 11 C-2 8.69 -2 6.38 -2 4 C-1.34 4 -0.68 4 0 4 C0 2.68 0 1.36 0 0 Z " fill="#AB794D" transform="translate(55,68)"/>
<path d="M0 0 C1.4370809 -0.05422947 2.87475462 -0.09289723 4.3125 -0.125 C5.11300781 -0.14820312 5.91351563 -0.17140625 6.73828125 -0.1953125 C9 0 9 0 12 2 C13.07136051 4.30144109 14.07989717 6.6340213 15 9 C12.69 9 10.38 9 8 9 C8.33 11.31 8.66 13.62 9 16 C8.67 15.01 8.34 14.02 8 13 C7.01 13 6.02 13 5 13 C5.185625 11.906875 5.37125 10.81375 5.5625 9.6875 C6.2578068 6.06375867 6.2578068 6.06375867 5 3 C5.66 3 6.32 3 7 3 C7 2.34 7 1.68 7 1 C4.69 1 2.38 1 0 1 C0 0.67 0 0.34 0 0 Z " fill="#E79D3C" transform="translate(49,17)"/>
<path d="M0 0 C-0.33 1.65 -0.66 3.3 -1 5 C-1.99 4.67 -2.98 4.34 -4 4 C-3.67 6.64 -3.34 9.28 -3 12 C-8.875 11.125 -8.875 11.125 -10 10 C-10.39588785 6.43700935 -10.42667508 4.62360205 -8.375 1.625 C-5.3962104 -0.4131192 -3.53677664 -0.32152515 0 0 Z " fill="#F1AC5A" transform="translate(33,59)"/>
<path d="M0 0 C1.65 0 3.3 0 5 0 C4.34 1.98 3.68 3.96 3 6 C4.32 6.33 5.64 6.66 7 7 C6.01 8.485 6.01 8.485 5 10 C2.4375 10.125 2.4375 10.125 0 10 C-0.33 10.33 -0.66 10.66 -1 11 C-2.66617115 11.04063832 -4.33388095 11.042721 -6 11 C-6 9.35 -6 7.7 -6 6 C-4.02 5.34 -2.04 4.68 0 4 C0 2.68 0 1.36 0 0 Z " fill="#BC7346" transform="translate(37,71)"/>
<path d="M0 0 C1.875 0.25 1.875 0.25 4 1 C5.25 3.0625 5.25 3.0625 6 5 C3.07561103 8.4257128 0.62811306 8.77421217 -3.7265625 9.140625 C-7.24900942 8.92274169 -9.27040742 7.12301645 -12 5 C-15.2249208 3.75675853 -15.2249208 3.75675853 -18 3 C-16.68 2.34 -15.36 1.68 -14 1 C-13.67 1.66 -13.34 2.32 -13 3 C-10.41394668 3.4683265 -10.41394668 3.4683265 -7.4375 3.625 C-5.91962891 3.73714844 -5.91962891 3.73714844 -4.37109375 3.8515625 C-3.19740234 3.92503906 -3.19740234 3.92503906 -2 4 C-2 4.66 -2 5.32 -2 6 C-0.68 5.34 0.64 4.68 2 4 C1.34 3.67 0.68 3.34 0 3 C0 2.01 0 1.02 0 0 Z " fill="#ACF3BE" transform="translate(50,8)"/>
<path d="M0 0 C1.65 0.33 3.3 0.66 5 1 C5.144375 1.639375 5.28875 2.27875 5.4375 2.9375 C5.81007181 4.97545146 5.81007181 4.97545146 7 6 C7.04080783 7.99958364 7.04254356 10.00045254 7 12 C6.01 12.495 6.01 12.495 5 13 C5 12.34 5 11.68 5 11 C3.43750191 12.31201173 3.43750191 12.31201173 2 14 C2 14.99 2 15.98 2 17 C1.01 17 0.02 17 -1 17 C-0.88490339 15.58249437 -0.75746342 14.16598831 -0.625 12.75 C-0.55539063 11.96109375 -0.48578125 11.1721875 -0.4140625 10.359375 C0 8 0 8 1.09375 5.84375 C1.3928125 5.2353125 1.691875 4.626875 2 4 C1.21690533 1.76529595 1.21690533 1.76529595 0 0 Z " fill="#DCD0DB" transform="translate(55,67)"/>
<path d="M0 0 C0.99 0.33 1.98 0.66 3 1 C2.67 1.99 2.34 2.98 2 4 C1.34 4 0.68 4 0 4 C-0.12375 4.7425 -0.2475 5.485 -0.375 6.25 C-0.95486701 8.80141485 -1.73708739 10.7267573 -3 13 C-2.34 13 -1.68 13 -1 13 C0.00496852 16.01490557 0.10335303 18.04181692 0.0625 21.1875 C0.05347656 22.08855469 0.04445313 22.98960938 0.03515625 23.91796875 C0.02355469 24.60503906 0.01195313 25.29210937 0 26 C-0.33 26 -0.66 26 -1 26 C-1.12117188 25.43152344 -1.24234375 24.86304687 -1.3671875 24.27734375 C-2.17952519 20.5343416 -3.02958659 16.90656865 -4.1875 13.25 C-5.0371031 9.85158761 -5.20028574 8.25791843 -4 5 C-1.9375 2.1875 -1.9375 2.1875 0 0 Z " fill="#A1FCBF" transform="translate(73,16)"/>
<path d="M0 0 C0.66 0.33 1.32 0.66 2 1 C1.67 1.66 1.34 2.32 1 3 C-1.97 2.67 -4.94 2.34 -8 2 C-8 2.99 -8 3.98 -8 5 C-7.01 5 -6.02 5 -5 5 C-4.67 4.34 -4.34 3.68 -4 3 C-4 6.90838866 -5.50567876 8.11594107 -8 11 C-9.65 10.67 -11.3 10.34 -13 10 C-13.375 7.8125 -13.375 7.8125 -13 5 C-8.84815607 0.44309813 -6.32887229 -0.7302545 0 0 Z " fill="#F4A43D" transform="translate(53,67)"/>
<path d="M0 0 C2.08896516 1.58473219 2.84743328 2.96233319 3.8125 5.375 C0.1683226 7.8044516 -1.89991272 7.53679575 -6.1875 7.375 C-6.5175 5.395 -6.8475 3.415 -7.1875 1.375 C-2.82386364 -0.80681818 -2.82386364 -0.80681818 0 0 Z " fill="#E99C4D" transform="translate(67.1875,50.625)"/>
<path d="M0 0 C3.33333333 1.33333333 6.66666667 2.66666667 10 4 C9.505 4.45375 9.01 4.9075 8.5 5.375 C6.77390663 6.87635519 6.77390663 6.87635519 7 9 C4.52653696 11.47346304 3.29238832 11.98313144 -0.25 12.1875 C-1.1575 12.125625 -2.065 12.06375 -3 12 C-3.33 12.66 -3.66 13.32 -4 14 C-3.75 12.125 -3.75 12.125 -3 10 C-2.34 9.690625 -1.68 9.38125 -1 9.0625 C1.2536537 8.15275278 1.2536537 8.15275278 1.875 5.5625 C2.26646351 2.75556583 2.26646351 2.75556583 0 0 Z " fill="#C68947" transform="translate(37,14)"/>
<path d="M0 0 C2.60623142 0.35219343 4.60789115 0.76473469 6.875 2.125 C8.67626472 5.12710787 7.68453372 7.70179208 7 11 C0.25 12.125 0.25 12.125 -2 11 C-2 10.34 -2 9.68 -2 9 C0.64 9.33 3.28 9.66 6 10 C5.67 9.01 5.34 8.02 5 7 C3.35 6.67 1.7 6.34 0 6 C0 5.34 0 4.68 0 4 C0.99 4 1.98 4 3 4 C3 3.34 3 2.68 3 2 C1.35 2.33 -0.3 2.66 -2 3 C-1.34 2.01 -0.68 1.02 0 0 Z " fill="#7E8789" transform="translate(19,19)"/>
<path d="M0 0 C0.66 0 1.32 0 2 0 C1.80799115 4.40660303 1.45769046 8.06554865 -0.5 12.0625 C-3.74912003 14.58056802 -5.96366076 14.5220776 -9.9765625 14.46875 C-12 14 -12 14 -14 11 C-14.99 10.67 -15.98 10.34 -17 10 C-17 9.34 -17 8.68 -17 8 C-13.62537285 8.54723683 -11.91765 9.0549 -9 11 C-5.92334973 10.91778291 -5.92334973 10.91778291 -3 10 C-0.70366176 6.55549263 -0.45983515 4.06187717 0 0 Z " fill="#A3E4C6" transform="translate(63,73)"/>
<path d="M0 0 C1.9375 0.125 1.9375 0.125 4 1 C5.25 3.5625 5.25 3.5625 6 6 C5.34 6 4.68 6 4 6 C3.67 7.32 3.34 8.64 3 10 C0.50638429 8.79618552 -1.68143083 7.54571278 -4 6 C-1.125 1.125 -1.125 1.125 0 0 Z " fill="#8B7B8A" transform="translate(59,9)"/>
<path d="M0 0 C0.66 0.33 1.32 0.66 2 1 C2.042721 2.66611905 2.04063832 4.33382885 2 6 C1 7 1 7 -2.0625 7.0625 C-3.031875 7.041875 -4.00125 7.02125 -5 7 C-4.67 8.65 -4.34 10.3 -4 12 C-5.98 12.33 -7.96 12.66 -10 13 C-10.33 14.65 -10.66 16.3 -11 18 C-11.3403125 17.1028125 -11.3403125 17.1028125 -11.6875 16.1875 C-13.33811133 13.43648112 -15.1972081 12.47515363 -18 11 C-15.59454362 9.79727181 -14.05003047 9.89928528 -11.375 9.9375 C-10.14910156 9.95103516 -10.14910156 9.95103516 -8.8984375 9.96484375 C-7.95871094 9.98224609 -7.95871094 9.98224609 -7 10 C-7 8.02 -7 6.04 -7 4 C-4.69 4.66 -2.38 5.32 0 6 C0 4.02 0 2.04 0 0 Z " fill="#5E353B" transform="translate(42,64)"/>
<path d="M0 0 C0.67546875 0.15597656 1.3509375 0.31195313 2.046875 0.47265625 C6.67044655 1.29829403 11.33001179 1.3926458 16.015625 1.62109375 C17.00046875 1.74613281 17.9853125 1.87117188 19 2 C19.33 2.66 19.66 3.32 20 4 C16.60186298 6.26542468 15.25650611 6.09026257 11.33984375 5.4921875 C7.14354952 4.60949456 3.07409623 3.3274207 -1 2 C-0.67 1.34 -0.34 0.68 0 0 Z " fill="#C3BDD3" transform="translate(38,48)"/>
<path d="M0 0 C0.66 0.66 1.32 1.32 2 2 C5.08347826 2.16681109 5.08347826 2.16681109 8 2 C8 3.32 8 4.64 8 6 C4.78548731 7.60725635 1.56387464 7.05748185 -2 7 C-2.33 5.35 -2.66 3.7 -3 2 C-2.01 1.34 -1.02 0.68 0 0 Z " fill="#F7F9FA" transform="translate(48,43)"/>
<path d="M0 0 C1.32 0 2.64 0 4 0 C3.67 1.32 3.34 2.64 3 4 C3.99 3.67 4.98 3.34 6 3 C5.67 3.99 5.34 4.98 5 6 C4.34 6 3.68 6 3 6 C3 6.99 3 7.98 3 9 C1.02 9.33 -0.96 9.66 -3 10 C-3.33 8.68 -3.66 7.36 -4 6 C-2.35 5.67 -0.7 5.34 1 5 C0.67 3.35 0.34 1.7 0 0 Z " fill="#3B3168" transform="translate(53,36)"/>
<path d="M0 0 C-0.33 1.32 -0.66 2.64 -1 4 C-6.75 5.125 -6.75 5.125 -9 4 C-8.67 2.35 -8.34 0.7 -8 -1 C-4.37673261 -2.2077558 -3.35853631 -1.54311128 0 0 Z " fill="#EF827C" transform="translate(44,41)"/>
<path d="M0 0 C3.625 0.1875 3.625 0.1875 6.625 2.1875 C6.625 1.5275 6.625 0.8675 6.625 0.1875 C7.285 0.5175 7.945 0.8475 8.625 1.1875 C8.295 2.1775 7.965 3.1675 7.625 4.1875 C6.965 4.1875 6.305 4.1875 5.625 4.1875 C5.955 6.8275 6.285 9.4675 6.625 12.1875 C6.00625 11.836875 5.3875 11.48625 4.75 11.125 C4.04875 10.815625 3.3475 10.50625 2.625 10.1875 C1.635 10.6825 1.635 10.6825 0.625 11.1875 C0.625 9.8675 0.625 8.5475 0.625 7.1875 C1.285 7.1875 1.945 7.1875 2.625 7.1875 C2.955 5.8675 3.285 4.5475 3.625 3.1875 C2.67625 3.043125 1.7275 2.89875 0.75 2.75 C-2.375 2.1875 -2.375 2.1875 -4.375 1.1875 C-3.375 0.1875 -3.375 0.1875 0 0 Z " fill="#69594B" transform="translate(28.375,55.8125)"/>
<path d="M0 0 C2.875 -0.125 2.875 -0.125 6 0 C6.66 0.66 7.32 1.32 8 2 C7.01 2.495 7.01 2.495 6 3 C6 4.65 6 6.3 6 8 C3.36 7.67 0.72 7.34 -2 7 C-1.34 6.67 -0.68 6.34 0 6 C0 4.02 0 2.04 0 0 Z " fill="#F9FBF6" transform="translate(49,58)"/>
<path d="M0 0 C0.66 0 1.32 0 2 0 C2.061875 1.11375 2.12375 2.2275 2.1875 3.375 C2.73527085 8.10268376 4.71043023 11.70316038 7.0390625 15.80078125 C8 18 8 18 7 21 C6.46890625 19.96359375 5.9378125 18.9271875 5.390625 17.859375 C4.67747626 16.48937873 3.96391264 15.11959836 3.25 13.75 C2.90195313 13.06808594 2.55390625 12.38617188 2.1953125 11.68359375 C0.19796751 7.87384313 -1.71206968 4.87323641 -5 2 C-4.01 2 -3.02 2 -2 2 C-1.67 2.33 -1.34 2.66 -1 3 C-0.67 2.01 -0.34 1.02 0 0 Z " fill="#45413C" transform="translate(63,15)"/>
<path d="M0 0 C0.85722656 0.05542969 1.71445312 0.11085938 2.59765625 0.16796875 C5.56973412 0.98665464 6.36148837 2.23404163 7.9375 4.8125 C7.41027344 4.47605469 6.88304688 4.13960938 6.33984375 3.79296875 C3.1792645 2.50304128 0.88459454 2.80023544 -2.5 3.125 C-3.61246094 3.22425781 -4.72492187 3.32351562 -5.87109375 3.42578125 C-8.64617052 3.76205126 -11.3333387 4.21565538 -14.0625 4.8125 C-14.3925 4.1525 -14.7225 3.4925 -15.0625 2.8125 C-13.4125 2.8125 -11.7625 2.8125 -10.0625 2.8125 C-9.7325 2.1525 -9.4025 1.4925 -9.0625 0.8125 C-5.98668004 -0.30910772 -3.23625859 -0.25870544 0 0 Z " fill="#4F493B" transform="translate(46.0625,79.1875)"/>
<path d="M0 0 C0 2.31 0 4.62 0 7 C-4.875 6.125 -4.875 6.125 -6 5 C-6.04063832 3.33382885 -6.042721 1.66611905 -6 0 C-3.50907189 -1.24546405 -2.58919267 -0.7767578 0 0 Z " fill="#EE958F" transform="translate(70,34)"/>
<path d="M0 0 C3.4375 0.8125 3.4375 0.8125 7 2 C8.06671952 5.20015856 7.94845472 6.88544294 7.5625 10.1875 C7.46066406 11.08855469 7.35882813 11.98960938 7.25390625 12.91796875 C7.12822266 13.94857422 7.12822266 13.94857422 7 15 C5.68 14.67 4.36 14.34 3 14 C3.2475 12.7625 3.495 11.525 3.75 10.25 C4.09545198 8.0737169 4.09545198 8.0737169 4 6 C2.18712805 3.60204619 2.18712805 3.60204619 0 2 C0 1.34 0 0.68 0 0 Z " fill="#AAF2C3" transform="translate(71,42)"/>
<path d="M0 0 C0.66 0 1.32 0 2 0 C1.67 1.65 1.34 3.3 1 5 C-0.4370809 5.05422947 -1.87475462 5.09289723 -3.3125 5.125 C-4.11300781 5.14820312 -4.91351563 5.17140625 -5.73828125 5.1953125 C-8 5 -8 5 -11 3 C-11 2.34 -11 1.68 -11 1 C-7.37 1.33 -3.74 1.66 0 2 C0 1.34 0 0.68 0 0 Z " fill="#D4D0EC" transform="translate(34,70)"/>
<path d="M0 0 C0 0.66 0 1.32 0 2 C-0.99 2 -1.98 2 -3 2 C-2.67 2.66 -2.34 3.32 -2 4 C0.02463255 4.65213292 0.02463255 4.65213292 2 5 C2.33 4.01 2.66 3.02 3 2 C3 3.98 3 5.96 3 8 C-2.75 8.125 -2.75 8.125 -5 7 C-5 5.02 -5 3.04 -5 1 C-3 0 -3 0 0 0 Z " fill="#F2E0F1" transform="translate(22,21)"/>
<path d="M0 0 C0.66 0 1.32 0 2 0 C2.33 0.66 2.66 1.32 3 2 C5.52733235 2.65555119 5.52733235 2.65555119 8 3 C7.34 4.65 6.68 6.3 6 8 C4.68 8 3.36 8 2 8 C1.67 8.66 1.34 9.32 1 10 C1.33 7.69 1.66 5.38 2 3 C1.01 3 0.02 3 -1 3 C-0.67 2.01 -0.34 1.02 0 0 Z " fill="#F7BB66" transform="translate(42,23)"/>
<path d="M0 0 C2 1 2 1 3.1875 3 C5.77951708 5.86015678 8.27184607 5.58576067 12 6 C12.33 6.66 12.66 7.32 13 8 C9.37 8 5.74 8 2 8 C1.67 7.01 1.34 6.02 1 5 C-0.29355827 3.62804426 -1.62298702 2.28817344 -3 1 C-2.01 0.67 -1.02 0.34 0 0 Z " fill="#A36F3E" transform="translate(42,60)"/>
<path d="M0 0 C4.875 0.875 4.875 0.875 6 2 C6.04080783 3.99958364 6.04254356 6.00045254 6 8 C3.5625 7.375 3.5625 7.375 1 6 C0.1875 2.875 0.1875 2.875 0 0 Z " fill="#E8E8EF" transform="translate(68,45)"/>
<path d="M0 0 C0.99 0.99 1.98 1.98 3 3 C2.01 3.66 1.02 4.32 0 5 C0 5.66 0 6.32 0 7 C-1.65 7 -3.3 7 -5 7 C-5 5.35 -5 3.7 -5 2 C-3.35 1.34 -1.7 0.68 0 0 Z " fill="#DAC9BD" transform="translate(36,75)"/>
<path d="M0 0 C0 0.33 0 0.66 0 1 C-2.31 1.33 -4.62 1.66 -7 2 C-7.66 5.3 -8.32 8.6 -9 12 C-9.66 11.34 -10.32 10.68 -11 10 C-10.77614679 2.94862385 -10.77614679 2.94862385 -8.3125 -0.0625 C-5.22597301 -1.31379472 -3.17993913 -0.79498478 0 0 Z " fill="#F0EEE4" transform="translate(32,58)"/>
<path d="M0 0 C0 1.98 0 3.96 0 6 C-2.97 6 -5.94 6 -9 6 C-9.33 6.66 -9.66 7.32 -10 8 C-10.33 7.01 -10.66 6.02 -11 5 C-9.35538655 4.16426177 -7.70927487 3.33147118 -6.0625 2.5 C-4.68771484 1.80390625 -4.68771484 1.80390625 -3.28515625 1.09375 C-1 0 -1 0 0 0 Z " fill="#544E66" transform="translate(68,45)"/>
<path d="M0 0 C0.66 0 1.32 0 2 0 C1.98839844 0.67546875 1.97679687 1.3509375 1.96484375 2.046875 C1.95582031 2.93890625 1.94679688 3.8309375 1.9375 4.75 C1.92589844 5.63171875 1.91429687 6.5134375 1.90234375 7.421875 C1.99173802 9.7818838 2.33087179 11.74498524 3 14 C0.525 13.01 0.525 13.01 -2 12 C-1.85831863 10.56208484 -1.71148957 9.1246763 -1.5625 7.6875 C-1.48128906 6.88699219 -1.40007813 6.08648437 -1.31640625 5.26171875 C-1 3 -1 3 0 0 Z " fill="#A5F0CA" transform="translate(19,60)"/>
<path d="M0 0 C1.32 0 2.64 0 4 0 C5.125 3.75 5.125 3.75 4 6 C1.03 5.505 1.03 5.505 -2 5 C-1.125 1.125 -1.125 1.125 0 0 Z " fill="#E6E4E2" transform="translate(38,64)"/>
<path d="M0 0 C-0.99 0.495 -0.99 0.495 -2 1 C-2.65213292 3.02463255 -2.65213292 3.02463255 -3 5 C-2.34 5.33 -1.68 5.66 -1 6 C-1.99 7.485 -1.99 7.485 -3 9 C-4.5 7.875 -4.5 7.875 -6 6 C-6.1875 2.8125 -6.1875 2.8125 -6 0 C-3.50907189 -1.24546405 -2.58919267 -0.7767578 0 0 Z " fill="#F4EAE1" transform="translate(38,40)"/>
<path d="M0 0 C1.32 0 2.64 0 4 0 C4.33 1.65 4.66 3.3 5 5 C3.35 5.33 1.7 5.66 0 6 C-0.38218767 4.34385343 -0.71395102 2.67542976 -1 1 C-0.67 0.67 -0.34 0.34 0 0 Z " fill="#513D5F" transform="translate(59,31)"/>
<path d="M0 0 C2.475 0.495 2.475 0.495 5 1 C5.33 2.65 5.66 4.3 6 6 C4.68 6.33 3.36 6.66 2 7 C0 4 0 4 0 0 Z " fill="#EAA53B" transform="translate(62,27)"/>
<path d="M0 0 C0.99 0 1.98 0 3 0 C3.185625 0.9590625 3.185625 0.9590625 3.375 1.9375 C3.684375 2.9584375 3.684375 2.9584375 4 4 C4.66 4.33 5.32 4.66 6 5 C5.01 5 4.02 5 3 5 C3.33 7.31 3.66 9.62 4 12 C3.67 11.01 3.34 10.02 3 9 C2.01 9 1.02 9 0 9 C0.185625 7.88625 0.37125 6.7725 0.5625 5.625 C1.31680657 2.17431139 1.31680657 2.17431139 0 0 Z " fill="#F2A941" transform="translate(54,21)"/>
<path d="M0 0 C1.98 0 3.96 0 6 0 C6.2475 0.639375 6.495 1.27875 6.75 1.9375 C7.81562433 4.18741541 7.81562433 4.18741541 10.125 4.75 C10.74375 4.8325 11.3625 4.915 12 5 C11.34 6.32 10.68 7.64 10 9 C9.67 8.01 9.34 7.02 9 6 C8.01 6.33 7.02 6.66 6 7 C5.34 5.35 4.68 3.7 4 2 C2.68 2 1.36 2 0 2 C0 1.34 0 0.68 0 0 Z " fill="#E6DBEC" transform="translate(58,36)"/>
<path d="M0 0 C0.99 0 1.98 0 3 0 C3 0.66 3 1.32 3 2 C4.32 2.33 5.64 2.66 7 3 C5.35 4.65 3.7 6.3 2 8 C0 6 0 6 -0.125 2.875 C-0.08375 1.92625 -0.0425 0.9775 0 0 Z " fill="#ECA84E" transform="translate(34,60)"/>
<path d="M0 0 C1.65 0.33 3.3 0.66 5 1 C5 2.65 5 4.3 5 6 C3.68 6.33 2.36 6.66 1 7 C0.34 5.68 -0.32 4.36 -1 3 C-0.01 3.33 0.98 3.66 2 4 C2 3.01 2 2.02 2 1 C1.34 0.67 0.68 0.34 0 0 Z " fill="#322341" transform="translate(44,33)"/>
<path d="M0 0 C-0.99 0.495 -0.99 0.495 -2 1 C-2.33 1.99 -2.66 2.98 -3 4 C-5.31 4.33 -7.62 4.66 -10 5 C-9.1875 3.0625 -9.1875 3.0625 -8 1 C-5.07175348 0.02391783 -3.04386724 -0.08226668 0 0 Z " fill="#F3A820" transform="translate(56,19)"/>
<path d="M0 0 C0.66 0 1.32 0 2 0 C2.33 1.65 2.66 3.3 3 5 C0 7 0 7 -2.1875 6.625 C-2.785625 6.41875 -3.38375 6.2125 -4 6 C-3.34 5.67 -2.68 5.34 -2 5 C-1.27840576 3.35636866 -0.60648579 1.68949614 0 0 Z " fill="#977B82" transform="translate(58,78)"/>
<path d="M0 0 C3.96 0 7.92 0 12 0 C12 0.66 12 1.32 12 2 C10.68 2.33 9.36 2.66 8 3 C7.67 4.65 7.34 6.3 7 8 C6.6596875 7.1028125 6.6596875 7.1028125 6.3125 6.1875 C4.66463631 3.44106051 2.76545517 2.52827786 0 1 C0 0.67 0 0.34 0 0 Z " fill="#4D6474" transform="translate(24,74)"/>
<path d="M0 0 C0.33 0 0.66 0 1 0 C1 2.64 1 5.28 1 8 C1.99 8.33 2.98 8.66 4 9 C3.360625 9.103125 2.72125 9.20625 2.0625 9.3125 C1.0415625 9.6528125 1.0415625 9.6528125 0 10 C-0.33 10.99 -0.66 11.98 -1 13 C-1.02696365 11.20841511 -1.04637917 9.41671527 -1.0625 7.625 C-1.07410156 6.62726562 -1.08570312 5.62953125 -1.09765625 4.6015625 C-1 2 -1 2 0 0 Z " fill="#DDA96D" transform="translate(32,30)"/>
<path d="M0 0 C-1 1 -1 1 -3.5625 1.0625 C-4.7690625 1.0315625 -4.7690625 1.0315625 -6 1 C-5.814375 2.27875 -5.62875 3.5575 -5.4375 4.875 C-4.875 8.75 -4.875 8.75 -6 11 C-6.66 11 -7.32 11 -8 11 C-7.67 7.37 -7.34 3.74 -7 0 C-2 -1 -2 -1 0 0 Z " fill="#B1F0D1" transform="translate(69,60)"/>
<path d="M0 0 C0 1.65 0 3.3 0 5 C-1.32 5.33 -2.64 5.66 -4 6 C-4 6.66 -4 7.32 -4 8 C-4.66 8 -5.32 8 -6 8 C-5.65442041 4.8033888 -5.42865983 3.38847297 -3 1.1875 C-1 0 -1 0 0 0 Z " fill="#9DF0AC" transform="translate(74,55)"/>
<path d="M0 0 C0.33 1.65 0.66 3.3 1 5 C0.67 4.01 0.34 3.02 0 2 C-1.60875 2.4640625 -1.60875 2.4640625 -3.25 2.9375 C-5.82866222 3.66812096 -8.39512102 4.37482904 -11 5 C-7.17906575 1.05170128 -5.52310605 -0.1453449 0 0 Z " fill="#DB9C4D" transform="translate(47,53)"/>
<path d="M0 0 C0.99 0.33 1.98 0.66 3 1 C4.00496852 4.01490557 4.10335303 6.04181692 4.0625 9.1875 C4.05347656 10.08855469 4.04445313 10.98960938 4.03515625 11.91796875 C4.02355469 12.60503906 4.01195313 13.29210938 4 14 C3.67 14 3.34 14 3 14 C0.88838269 4.58997722 0.88838269 4.58997722 0 0 Z " fill="#ABF3CB" transform="translate(69,28)"/>
<path d="M0 0 C0.33 1.32 0.66 2.64 1 4 C-0.875 5.0625 -0.875 5.0625 -3 6 C-3.66 5.67 -4.32 5.34 -5 5 C-5 5.66 -5 6.32 -5 7 C-5.66 7 -6.32 7 -7 7 C-4.60526316 0 -4.60526316 0 0 0 Z " fill="#9CF4BF" transform="translate(34,8)"/>
<path d="M0 0 C2.40133271 1.60088848 4.702779 3.25728062 7 5 C1.25 6.125 1.25 6.125 -1 5 C-0.67 3.35 -0.34 1.7 0 0 Z " fill="#E89192" transform="translate(36,40)"/>
<path d="M0 0 C1.98 0.99 1.98 0.99 4 2 C3.34 3.98 2.68 5.96 2 8 C1.34 8 0.68 8 0 8 C0 5.36 0 2.72 0 0 Z " fill="#ECDEE2" transform="translate(34,15)"/>
<path d="M0 0 C0.66 0.33 1.32 0.66 2 1 C1.67 2.32 1.34 3.64 1 5 C-0.98 5 -2.96 5 -5 5 C-5.33 5.66 -5.66 6.32 -6 7 C-5.8125 5.1875 -5.8125 5.1875 -5 3 C-2.5625 1.1875 -2.5625 1.1875 0 0 Z " fill="#E09F4A" transform="translate(39,21)"/>
<path d="M0 0 C2.31 0.33 4.62 0.66 7 1 C7 1.99 7 2.98 7 4 C2.25 3.125 2.25 3.125 0 2 C0 1.34 0 0.68 0 0 Z " fill="#A4F2AC" transform="translate(30,52)"/>
<path d="M0 0 C0.99 0.33 1.98 0.66 3 1 C3 1.66 3 2.32 3 3 C2.01 3 1.02 3 0 3 C-0.66 4.32 -1.32 5.64 -2 7 C-2.66 6.67 -3.32 6.34 -4 6 C-1.125 1.125 -1.125 1.125 0 0 Z " fill="#8F8578" transform="translate(59,9)"/>
<path d="M0 0 C0.66 0 1.32 0 2 0 C2 1.98 2 3.96 2 6 C1.01 6.495 1.01 6.495 0 7 C0 6.34 0 5.68 0 5 C-0.66 5 -1.32 5 -2 5 C-1.125 1.125 -1.125 1.125 0 0 Z " fill="#E3C4CC" transform="translate(60,73)"/>
<path d="M0 0 C0.66 0 1.32 0 2 0 C2 0.99 2 1.98 2 3 C-3.94 3.495 -3.94 3.495 -10 4 C-10.33 3.01 -10.66 2.02 -11 1 C-7.37 1.33 -3.74 1.66 0 2 C0 1.34 0 0.68 0 0 Z " fill="#D6BBBD" transform="translate(34,70)"/>
<path d="M0 0 C0.99 0.495 0.99 0.495 2 1 C2 1.99 2 2.98 2 4 C2.99 4.33 3.98 4.66 5 5 C5 5.66 5 6.32 5 7 C3.35 6.67 1.7 6.34 0 6 C0 4.02 0 2.04 0 0 Z " fill="#FBAA41" transform="translate(25,64)"/>
<path d="M0 0 C1.98 0.495 1.98 0.495 4 1 C3.67 2.32 3.34 3.64 3 5 C1.68 5 0.36 5 -1 5 C-0.67 3.35 -0.34 1.7 0 0 Z " fill="#F6A226" transform="translate(63,51)"/>
<path d="M0 0 C0.99 0.33 1.98 0.66 3 1 C3.33 2.98 3.66 4.96 4 7 C3.34 6.34 2.68 5.68 2 5 C1.01 5 0.02 5 -1 5 C-0.67 3.35 -0.34 1.7 0 0 Z " fill="#A3F1B7" transform="translate(28,22)"/>
<path d="M0 0 C1.98 0.66 3.96 1.32 6 2 C4.68 2.33 3.36 2.66 2 3 C1.34 5.31 0.68 7.62 0 10 C-0.33 10 -0.66 10 -1 10 C-1.02689216 8.52093108 -1.04634621 7.04172517 -1.0625 5.5625 C-1.07410156 4.73878906 -1.08570312 3.91507813 -1.09765625 3.06640625 C-1 1 -1 1 0 0 Z " fill="#4A5155" transform="translate(32,13)"/>
<path d="M0 0 C0 0.66 0 1.32 0 2 C-3.96 2 -7.92 2 -12 2 C-9.74099507 -0.25900493 -9.05816925 -0.34458029 -6 -0.6875 C-4.948125 -0.81705078 -4.948125 -0.81705078 -3.875 -0.94921875 C-2 -1 -2 -1 0 0 Z " fill="#A7FCBE" transform="translate(51,84)"/>
<path d="M0 0 C0.78375 0.495 1.5675 0.99 2.375 1.5 C4.78552327 3.16537965 4.78552327 3.16537965 7 3 C6.34 4.32 5.68 5.64 5 7 C4.34 7 3.68 7 3 7 C0.70351351 4.4385343 0 3.52032428 0 0 Z " fill="#815D4E" transform="translate(68,49)"/>
<path d="M0 0 C1.98 0.495 1.98 0.495 4 1 C3.67 2.32 3.34 3.64 3 5 C1.68 4.67 0.36 4.34 -1 4 C-0.67 2.68 -0.34 1.36 0 0 Z " fill="#8C6A87" transform="translate(50,41)"/>
<path d="M0 0 C0.33 0 0.66 0 1 0 C1 1.98 1 3.96 1 6 C-0.98 6 -2.96 6 -5 6 C-5.33 5.34 -5.66 4.68 -6 4 C-4.02 3.67 -2.04 3.34 0 3 C0 2.01 0 1.02 0 0 Z " fill="#F3ECFB" transform="translate(24,23)"/>
<path d="M0 0 C2.64 0.99 5.28 1.98 8 3 C6.68 3.33 5.36 3.66 4 4 C3.67 4.66 3.34 5.32 3 6 C2.67 5.01 2.34 4.02 2 3 C1.34 3 0.68 3 0 3 C0 2.01 0 1.02 0 0 Z " fill="#9BF7AF" transform="translate(16,71)"/>
<path d="M0 0 C0.33 0.99 0.66 1.98 1 3 C-0.65 3 -2.3 3 -4 3 C-4.33 3.66 -4.66 4.32 -5 5 C-5.99 5 -6.98 5 -8 5 C-8 3.68 -8 2.36 -8 1 C-5.36 1.33 -2.72 1.66 0 2 C0 1.34 0 0.68 0 0 Z " fill="#CFA46C" transform="translate(57,33)"/>
<path d="M0 0 C5 2 5 2 10 4 C10 4.33 10 4.66 10 5 C8.02 5.33 6.04 5.66 4 6 C2.68 4.02 1.36 2.04 0 0 Z " fill="#D7A669" transform="translate(37,14)"/>
<path d="M0 0 C0.94875 0.04125 1.8975 0.0825 2.875 0.125 C2.545 1.775 2.215 3.425 1.875 5.125 C1.545 4.135 1.215 3.145 0.875 2.125 C-1.105 2.125 -3.085 2.125 -5.125 2.125 C-3.125 0.125 -3.125 0.125 0 0 Z " fill="#E1B57E" transform="translate(30.125,58.875)"/>
<path d="M0 0 C0.33 0.66 0.66 1.32 1 2 C1.66 2 2.32 2 3 2 C3 2.99 3 3.98 3 5 C1.35 4.67 -0.3 4.34 -2 4 C-1.34 2.68 -0.68 1.36 0 0 Z " fill="#F4EBE9" transform="translate(51,36)"/>
</svg>
