
<svg xmlns="http://www.w3.org/2000/svg" version="1.1" width="67px" height="67px" style="shape-rendering:geometricPrecision; text-rendering:geometricPrecision; image-rendering:optimizeQuality; fill-rule:evenodd; clip-rule:evenodd" xmlns:xlink="http://www.w3.org/1999/xlink">
<g><path style="opacity:0.961" fill="#afea06" d="M 6.5,-0.5 C 24.1667,-0.5 41.8333,-0.5 59.5,-0.5C 60.6002,0.558465 61.9336,1.3918 63.5,2C 64.3994,3.65161 65.3994,5.15161 66.5,6.5C 66.5,24.1667 66.5,41.8333 66.5,59.5C 65.4415,60.6002 64.6082,61.9336 64,63.5C 62.3484,64.3994 60.8484,65.3994 59.5,66.5C 59.1667,66.5 58.8333,66.5 58.5,66.5C 58.6716,65.5084 58.3382,64.8417 57.5,64.5C 56.0939,61.5865 54.0939,59.0865 51.5,57C 47.5245,54.8537 43.5245,53.0204 39.5,51.5C 40.3764,51.6309 41.0431,51.2975 41.5,50.5C 40.5153,48.9017 40.3486,47.235 41,45.5C 43.0803,43.0072 44.9136,40.3405 46.5,37.5C 46.0233,36.5224 45.3567,35.6891 44.5,35C 41.7821,33.9282 39.1155,32.7616 36.5,31.5C 37.2485,29.6675 38.2485,28.0009 39.5,26.5C 43.8569,28.0183 46.8569,26.5183 48.5,22C 48.1667,21.5 47.8333,21 47.5,20.5C 44.3599,26.1 42.0265,25.7667 40.5,19.5C 41.5175,18.1476 42.8508,17.1476 44.5,16.5C 46.561,11.3972 45.061,9.73049 40,11.5C 39.7265,13.3289 38.8932,14.8289 37.5,16C 33.9212,17.7059 30.4212,19.5392 27,21.5C 26.1786,24.5541 26.3452,27.5541 27.5,30.5C 28.5,30.1667 29.1667,29.5 29.5,28.5C 27.4843,24.2082 28.8176,21.8748 33.5,21.5C 33.9062,25.6879 32.4062,29.0212 29,31.5C 28.5795,37.4439 26.2462,42.4439 22,46.5C 20.4734,49.5531 18.9734,52.5531 17.5,55.5C 13.0823,57.5831 10.0823,60.9164 8.5,65.5C 7.83333,65.5 7.5,65.8333 7.5,66.5C 7.16667,66.5 6.83333,66.5 6.5,66.5C 5.39977,65.4415 4.06644,64.6082 2.5,64C 1.60064,62.3484 0.60064,60.8484 -0.5,59.5C -0.5,41.8333 -0.5,24.1667 -0.5,6.5C 0.558465,5.39977 1.3918,4.06644 2,2.5C 3.65161,1.60064 5.15161,0.60064 6.5,-0.5 Z"/></g>
<g><path style="opacity:1" fill="#fbfdf5" d="M 39.5,51.5 C 38.7222,50.8444 38.0556,50.0111 37.5,49C 38.3131,45.0436 39.9798,41.5436 42.5,38.5C 39.5541,37.3452 36.5541,37.1786 33.5,38C 31.6227,40.2513 30.1227,42.7513 29,45.5C 25.6175,47.3812 23.1175,50.0478 21.5,53.5C 24.0698,59.3363 22.7364,60.003 17.5,55.5C 18.9734,52.5531 20.4734,49.5531 22,46.5C 26.2462,42.4439 28.5795,37.4439 29,31.5C 32.4062,29.0212 33.9062,25.6879 33.5,21.5C 28.8176,21.8748 27.4843,24.2082 29.5,28.5C 29.1667,29.5 28.5,30.1667 27.5,30.5C 26.3452,27.5541 26.1786,24.5541 27,21.5C 30.4212,19.5392 33.9212,17.7059 37.5,16C 38.8932,14.8289 39.7265,13.3289 40,11.5C 45.061,9.73049 46.561,11.3972 44.5,16.5C 42.8508,17.1476 41.5175,18.1476 40.5,19.5C 42.0265,25.7667 44.3599,26.1 47.5,20.5C 47.8333,21 48.1667,21.5 48.5,22C 46.8569,26.5183 43.8569,28.0183 39.5,26.5C 38.2485,28.0009 37.2485,29.6675 36.5,31.5C 39.1155,32.7616 41.7821,33.9282 44.5,35C 45.3567,35.6891 46.0233,36.5224 46.5,37.5C 44.9136,40.3405 43.0803,43.0072 41,45.5C 40.3486,47.235 40.5153,48.9017 41.5,50.5C 41.0431,51.2975 40.3764,51.6309 39.5,51.5 Z"/></g>
<g><path style="opacity:1" fill="#b2e922" d="M 39.5,51.5 C 33.316,51.0347 27.316,51.7014 21.5,53.5C 23.1175,50.0478 25.6175,47.3812 29,45.5C 30.1227,42.7513 31.6227,40.2513 33.5,38C 36.5541,37.1786 39.5541,37.3452 42.5,38.5C 39.9798,41.5436 38.3131,45.0436 37.5,49C 38.0556,50.0111 38.7222,50.8444 39.5,51.5 Z"/></g>
<g><path style="opacity:1" fill="#030401" d="M 39.5,51.5 C 43.5245,53.0204 47.5245,54.8537 51.5,57C 54.0939,59.0865 56.0939,61.5865 57.5,64.5C 41.3419,65.4964 25.0085,65.8298 8.5,65.5C 10.0823,60.9164 13.0823,57.5831 17.5,55.5C 22.7364,60.003 24.0698,59.3363 21.5,53.5C 27.316,51.7014 33.316,51.0347 39.5,51.5 Z"/></g>
<g><path style="opacity:0.361" fill="#4e6b00" d="M 57.5,64.5 C 58.3382,64.8417 58.6716,65.5084 58.5,66.5C 41.5,66.5 24.5,66.5 7.5,66.5C 7.5,65.8333 7.83333,65.5 8.5,65.5C 25.0085,65.8298 41.3419,65.4964 57.5,64.5 Z"/></g>
</svg>
